<?xml version="1.0" encoding="UTF-8"?>
<!-- Created with Inkscape (http://www.inkscape.org/) -->
<svg width="15.822mm" height="22.639mm" version="1.1" viewBox="0 0 15.822 22.639" xmlns="http://www.w3.org/2000/svg" xmlns:cc="http://creativecommons.org/ns#" xmlns:dc="http://purl.org/dc/elements/1.1/" xmlns:rdf="http://www.w3.org/1999/02/22-rdf-syntax-ns#">
 <path d="m0 0h6.4683q4.2171 0 6.4048 1.2683 2.1878 1.2683 2.1878 4.3439 0 1.9976-1.1098 3.3292-1.1098 1.3-3.2024 1.6805v0.15854q1.4268 0.25366 2.5683 0.85609 1.1732 0.60244 1.839 1.7122t0.66585 2.8536q0 3.0756-2.1244 4.7561-2.0927 1.6805-5.739 1.6805h-7.9585zm2.8536 9.639h4.1854q2.8854 0 3.9634-0.91951 1.1098-0.95121 1.1098-2.7902 0-1.8707-1.3317-2.6634-1.3-0.82438-4.1854-0.82438h-3.7414zm0 2.378v8.2122h4.5658q3.0122 0 4.1854-1.1732 1.1732-1.1732 1.1732-3.0756 0-1.7756-1.2366-2.8536-1.2049-1.1098-4.3439-1.1098z" stroke-width=".26458" style="font-variant-ligatures:none" aria-label="B"/>
 <metadata>
  <rdf:RDF>
   <cc:Work rdf:about="">
    <dc:creator>
     <cc:Agent>
      <dc:title>asimpletouch</dc:title>
     </cc:Agent>
    </dc:creator>
   </cc:Work>
  </rdf:RDF>
 </metadata>
</svg>
