<svg xmlns="http://www.w3.org/2000/svg" version="1.1" xmlns:xlink="http://www.w3.org/1999/xlink" xmlns:svgjs="http://svgjs.com/svgjs" width="100.00006mm" height="100mm"><svg width="100.00006mm" height="100mm" viewBox="0 0 100.00006 99.999999" version="1.1" id="SvgjsSvg1011" inkscape:version="1.1 (c68e22c387, 2021-05-23)" sodipodi:docname="AST_logo.svg" xmlns:inkscape="http://www.inkscape.org/namespaces/inkscape" xmlns:sodipodi="http://sodipodi.sourceforge.net/DTD/sodipodi-0.dtd" xmlns="http://www.w3.org/2000/svg" xmlns:svg="http://www.w3.org/2000/svg">
  <sodipodi:namedview id="SvgjsSodipodi:namedview1010" pagecolor="#ffffff" bordercolor="#666666" borderopacity="1.0" inkscape:pageshadow="2" inkscape:pageopacity="0.0" inkscape:pagecheckerboard="0" inkscape:document-units="mm" showgrid="false" inkscape:object-nodes="false" inkscape:snap-smooth-nodes="true" inkscape:zoom="1.4142136" inkscape:cx="42.072853" inkscape:cy="191.27238" inkscape:window-width="1920" inkscape:window-height="1017" inkscape:window-x="-8" inkscape:window-y="-8" inkscape:window-maximized="1" inkscape:current-layer="layer1"></sodipodi:namedview>
  <defs id="SvgjsDefs1009"></defs>
  <g inkscape:label="Layer 1" inkscape:groupmode="layer" id="SvgjsG1008" transform="translate(-58.660017,-123.33687)">
    <rect style="opacity:1;fill:#000000;stroke:#000000;stroke-width:0.317317;stroke-miterlimit:4;stroke-dasharray:none" id="SvgjsRect1007" width="99.682747" height="99.682686" x="58.818676" y="123.49553"></rect>
    <text xml:space="preserve" style="font-size:30.7432px;line-height:1.25;font-family:Alef;-inkscape-font-specification:'Alef, Normal';stroke-width:0.32024" x="207.38335" y="182.09982" id="SvgjsText1006" transform="scale(1.1634881,0.85948447)" svgjs:data="{&quot;leading&quot;:&quot;1.3&quot;}"><tspan sodipodi:role="line" id="SvgjsTspan1005" style="stroke-width:0.32024" x="207.38335" y="182.09982" svgjs:data="{&quot;leading&quot;:&quot;1.3&quot;}"></tspan></text>
    <text xml:space="preserve" style="font-size:30.7432px;line-height:1.25;font-family:Alef;-inkscape-font-specification:'Alef, Normal';stroke-width:0.32024" x="384.52863" y="152.29143" id="SvgjsText1004" transform="scale(1.1634881,0.85948447)" svgjs:data="{&quot;leading&quot;:&quot;1.3&quot;}"><tspan sodipodi:role="line" id="SvgjsTspan1003" style="stroke-width:0.32024" x="384.52863" y="152.29143" svgjs:data="{&quot;leading&quot;:&quot;1.3&quot;}"></tspan></text>
    <path id="SvgjsPath1002" style="font-size:51.6654px;line-height:1.25;font-family:monospace;-inkscape-font-specification:monospace;fill:#ffffff;stroke:none;stroke-width:0.321583;stroke-miterlimit:4;stroke-dasharray:none" d="m 89.490524,123.33687 -30.830507,61.209 h 14.099466 l 7.285444,-15.94771 h 35.283743 l 0.36737,0.78872 c 1.97722,0.36232 4.32191,0.71265 7.01967,1.0201 l 7.42461,0.8192 -6.54701,-12.99847 c -5.30741,0.15809 -9.40582,0.87188 -12.30414,1.98373 l 0.80111,2.01356 H 83.351001 l 14.370276,-31.59101 8.725983,19.02185 c 3.64605,-0.81825 7.66627,-1.33923 12.02204,-1.60235 l -1.82168,-3.61569 -10.62914,-21.10093 z m 32.091816,58.69948 1.16723,2.50952 h 14.09945 l -0.0151,-0.0252 c -2.4347,-0.75059 -6.23948,-1.49745 -11.24846,-2.03375 -0.008,0 -0.0164,0 -0.0239,0 z" sodipodi:nodetypes="ccccccccccccccccccccccccc"></path>
    <path id="SvgjsPath1001" style="font-size:51.6654px;line-height:1.25;font-family:monospace;-inkscape-font-specification:monospace;fill:#ffffff;stroke:none;stroke-width:0.321584;stroke-miterlimit:4;stroke-dasharray:none" d="m 125.17784,150.30414 c -10.6589,0 -19.21498,1.40318 -25.667614,4.20909 -4.315608,1.87498 -7.17529,5.03077 -8.583047,7.74803 l 14.002911,0.0683 c 0.98047,-1.18097 2.56602,-3.14358 4.76165,-3.99067 3.96723,-1.55374 9.36816,-2.33002 16.20322,-2.33002 4.49303,0 8.93733,0.34716 13.33473,1.04326 4.44515,0.6957 8.86704,1.72738 13.26451,3.09559 v -7.13062 c -5.01879,-0.90443 -9.79818,-1.57649 -14.33898,-2.01705 -4.54074,-0.46351 -8.86675,-0.69615 -12.97738,-0.69615 z m -34.056153,18.7758 c 0,0 2.57233,3.98781 5.521245,5.4338 4.492948,2.20292 11.710018,3.84948 21.651928,4.9394 l 7.74307,0.87012 c 6.93065,0.74212 11.78228,1.79681 14.55457,3.16495 2.82003,1.3682 4.2301,3.35131 4.2301,5.94848 0,2.85234 -2.0316,5.07884 -6.09445,6.67886 -4.06276,1.57695 -9.7502,2.36517 -17.06323,2.36517 -4.97099,0 -9.91853,-0.39459 -14.84169,-1.18306 -4.87534,-0.78848 -15.049456,-2.02933 -20.546213,-3.72212 v 7.47858 c 5.114354,1.0435 15.192543,1.82073 20.259103,2.3309 5.06656,0.53307 10.11003,0.79985 15.1288,0.79985 12.04498,0 21.22138,-1.29815 27.53071,-3.89538 6.30925,-2.59718 9.46439,-6.3661 9.46439,-11.30543 0,-4.19726 -2.29443,-7.51354 -6.88301,-9.94833 -4.58856,-2.43493 -11.90152,-4.21985 -21.93904,-5.35612 l -7.6001,-0.83494 c -7.12191,-0.81162 -11.99719,-1.82021 -14.62604,-3.0261 -0.40947,-0.1916 -0.88186,-0.47109 -1.22635,-0.68976 z" sodipodi:nodetypes="cccccsccccscccccscsccccsssscccccc"></path>
    <path id="SvgjsPath1000" style="font-size:51.6654px;line-height:1.25;font-family:monospace;-inkscape-font-specification:monospace;fill:#ff7510;stroke:#000000;stroke-width:0.639736;stroke-miterlimit:4;stroke-dasharray:none;fill-opacity:1;opacity:1" d="m 64.018107,159.35059 -4.801391,9.56044 31.810153,-0.12963 v 54.23523 h 11.297881 v -54.23521 h 35.29924 l -0.0328,-9.45204 z" sodipodi:nodetypes="ccccccccc"></path>
  </g>
</svg><style>@media (prefers-color-scheme: light) { :root { filter: none; } }
</style></svg>