<?xml version="1.0" encoding="UTF-8" standalone="no"?>
<!-- Created with Inkscape (http://www.inkscape.org/) -->

<svg
   width="252.27461mm"
   height="290.76953mm"
   viewBox="0 0 252.27462 290.76953"
   version="1.1"
   id="svg1"
   inkscape:version="1.3 (0e150ed6c4, 2023-07-21)"
   sodipodi:docname="AST_hex_logo.svg"
   inkscape:export-filename="asimpletouch_hex_logo.png"
   inkscape:export-xdpi="96"
   inkscape:export-ydpi="96"
   xmlns:inkscape="http://www.inkscape.org/namespaces/inkscape"
   xmlns:sodipodi="http://sodipodi.sourceforge.net/DTD/sodipodi-0.dtd"
   xmlns="http://www.w3.org/2000/svg"
   xmlns:svg="http://www.w3.org/2000/svg">
  <sodipodi:namedview
     id="namedview1"
     pagecolor="#ffffff"
     bordercolor="#666666"
     borderopacity="1.0"
     inkscape:showpageshadow="2"
     inkscape:pageopacity="0.0"
     inkscape:pagecheckerboard="0"
     inkscape:deskcolor="#d1d1d1"
     inkscape:document-units="mm"
     inkscape:zoom="0.35355339"
     inkscape:cx="14.142136"
     inkscape:cy="335.16861"
     inkscape:window-width="1920"
     inkscape:window-height="1017"
     inkscape:window-x="-8"
     inkscape:window-y="-8"
     inkscape:window-maximized="1"
     inkscape:current-layer="layer1"
     inkscape:export-bgcolor="#ffffff00" />
  <defs
     id="defs1" />
  <g
     inkscape:label="Layer 1"
     inkscape:groupmode="layer"
     id="layer1"
     transform="translate(19.096301,34.365962)">
    <g
       id="g15"
       inkscape:export-filename=".\g15.png"
       inkscape:export-xdpi="96"
       inkscape:export-ydpi="96">
      <path
         style="fill:#c64600;stroke:none;stroke-width:0;stroke-linecap:square;stroke-linejoin:miter;stroke-dasharray:none"
         d="M -15.077397,71.536057 -16.447753,39.804877 10.706649,24.113201 40.68216,8.853984 13.527897,55.873948 -14.638124,104.44224 Z"
         id="path11"
         sodipodi:nodetypes="ccccccc" />
      <g
         id="g373"
         transform="matrix(1.40631,0,0,1.9487632,-40.946873,-211.2935)"
         style="stroke-width:0.604061">
        <path
           d="m 79.764329,165.4542 7.90855,29.51655 h 5.2e-4 z"
           style="fill:#3d3846;stroke-width:0.159824;stroke-linejoin:bevel"
           id="path303" />
        <rect
           style="fill:none;fill-opacity:1;stroke:none;stroke-width:0.159824;stroke-linecap:butt;stroke-linejoin:bevel;stroke-dasharray:none;stroke-opacity:1;paint-order:normal"
           id="rect260"
           width="3.5078201"
           height="16.928965"
           x="-163.45441"
           y="59.756302"
           transform="rotate(-90)" />
        <path
           id="path270"
           style="fill:none;stroke-width:0.159824;stroke-linejoin:bevel"
           d="m 61.681991,129.95064 -0.67645,2.52542 -0.833022,3.10782 -16.192809,60.36428 h 3.631816 l 16.192296,-60.36428 0.83302,-3.10782 0.676968,-2.52542 z" />
        <path
           d="m 70.250699,129.95042 h -4.93665 l -0.67696,2.52542 h 6.29057 z"
           style="fill:none;stroke-width:0.159824;stroke-linejoin:bevel"
           id="path295" />
        <path
           id="path268"
           style="fill:#e66100;stroke-width:0.159824;stroke-linejoin:bevel"
           d="m 64.637245,132.47584 -0.833035,3.10764 h 0.0015 l -10.435897,38.87308 -5.758852,21.49179 3.646685,-0.0503 0.168297,-0.62725 0.01727,0.005 8.069815,-30.11701 18.666292,-0.003 6.749527,25.15904 0.832667,3.10805 0.676496,2.52548 h 3.613246 v -4e-4 h 1.51541 l -0.262,-0.9771 -7.908499,-29.51674 h -0.0011 l -8.004039,-29.87063 h 0.0011 l -0.833034,-3.10764 h -3.631251 z m 2.800789,3.10764 h 4.322078 v 4.1e-4 h -1.51394 l 6.999033,26.09024 -16.792241,-0.0233 z" />
        <path
           d="m 71.796927,129.95042 h -1.546228 l 0.67696,2.52542 h 3.6313 z"
           style="fill:none;stroke-width:0.159824;stroke-linejoin:bevel"
           id="path294"
           sodipodi:nodetypes="ccccc" />
        <path
           d="m 87.673399,194.97075 h -5.2e-4 l 0.262,0.97719 z"
           style="stroke-width:0.159824;stroke-linejoin:bevel"
           id="path305" />
        <path
           d="m 84.321429,195.94816 -0.67644,-2.52543 -0.83303,-3.10783 -14.68231,-54.73102 h -0.002 l 8.00417,29.87052 8.00364,29.87106 h 5.2e-4 l 0.1664,0.6227 z"
           style="fill:none;stroke-width:0.159824;stroke-linejoin:bevel"
           id="path318" />
        <path
           d="m 87.934649,195.94816 -0.262,-0.9772 -7.90856,-29.51655 h -5.2e-4 l -8.00365,-29.87052 h -3.63027 l 14.68231,54.73102 0.83303,3.10782 0.67644,2.52543 z"
           style="fill:none;stroke-width:0.159824;stroke-linejoin:bevel"
           id="path319" />
        <path
           style="color:#000000;fill:#e66100;stroke-width:0.604061;stroke-linecap:square;stroke-linejoin:bevel;-inkscape-stroke:none"
           d="m 64.636839,132.47606 -2.95485,-2.52542"
           id="path321" />
        <path
           style="color:#000000;fill:#e66100;stroke-width:0.604061;stroke-linecap:square;stroke-linejoin:bevel;-inkscape-stroke:none"
           d="m 61.681989,129.95064 -0.140205,0.16344 3.027906,2.61317 0.158369,-0.14912 0.116966,-0.10229 -2.988512,-2.52524 z"
           id="path322"
           sodipodi:nodetypes="ccccccc" />
        <path
           style="color:#000000;fill:#e66100;stroke-width:0.604061;-inkscape-stroke:none"
           d="m 74.763089,159.83273 -0.22094,0.0239 -0.08528,0.18646 2.540748,1.80431 0.49211,-0.21369 z"
           id="path324"
           sodipodi:nodetypes="cccccc" />
        <path
           style="color:#000000;fill:#e66100;stroke-width:0.604061;stroke-linecap:square;-inkscape-stroke:none"
           d="m 60.853456,159.64162 -0.05734,0.4374 v 0 l 13.80002,-0.0363 v 0 l -0.0083,-0.38482 z"
           id="path325"
           sodipodi:nodetypes="ccccccc" />
        <path
           style="color:#000000;fill:#e66100;stroke-width:0.604061;stroke-linecap:square;-inkscape-stroke:none"
           d="m 68.223849,135.42277 -0.342738,0.11115 v 0 l 6.528344,24.35386 0.122974,0.11119 0.25586,-0.0684 -0.0332,-0.1289 z"
           id="path326"
           sodipodi:nodetypes="ccccccccc" />
        <path
           style="color:#000000;fill:#e66100;stroke-width:0.604061;stroke-linecap:square;-inkscape-stroke:none"
           d="m 71.796927,129.95042 -10.072548,2.2e-4 -0.0575,0.0564 0.140412,0.20866 9.803755,-0.0306 2.424363,2.29073 0.43062,0.1618 0.13283,-0.0126 -0.04,-0.14923 z"
           id="path327"
           sodipodi:nodetypes="cccccccccc" />
        <path
           style="color:#000000;fill:#e66100;stroke-width:0.604061;stroke-linecap:square;-inkscape-stroke:none"
           d="m 61.681989,129.95064 -0.100642,-4e-5 -0.02283,0.0974 -16.168614,63.85555 2.221334,2.0444 h 0.12631 l 0.0643,-0.23784 -0.01786,-0.40632 -1.839509,-1.65534 15.862813,-63.43275 z"
           id="path328"
           sodipodi:nodetypes="ccccccccccc" />
        <path
           style="fill:none;stroke:#e66100;stroke-width:0.32764;stroke-linecap:square;stroke-linejoin:miter;stroke-dasharray:none;stroke-opacity:1"
           d="m 75.972579,165.24047 7.52515,28.14712 1.47019,1.28028 1.401128,1.02267"
           id="path334"
           sodipodi:nodetypes="cccc" />
        <path
           style="color:#000000;fill:#e66100;stroke-width:0.604061;stroke-linecap:square;stroke-linejoin:bevel;-inkscape-stroke:none"
           d="m 83.531629,193.26117 -0.0339,0.12642 2.94038,2.56057 0.13959,-0.0595 0.0214,-0.10231 -2.98272,-2.52522 z"
           id="path377"
           sodipodi:nodetypes="ccccccc" />
      </g>
      <g
         id="g372"
         transform="matrix(1.230535,0,0,1.9452429,-26.017144,-209.06428)"
         style="stroke-width:0.646347">
        <path
           d="m 97.294796,180.48499 3.663834,-3.66384 -7.327682,3.00419 z"
           style="fill:none;stroke-width:0.171013;stroke-linejoin:round"
           id="path193"
           sodipodi:nodetypes="cccc" />
        <path
           d="m 97.294571,191.47717 -1.831917,1.83192 1.835155,1.83461 28.759041,0.0189 1.82922,-1.82921 -1.83191,-1.83192 z"
           style="fill:#e66100;stroke-width:0.171013;stroke-linejoin:round"
           id="path239" />
        <path
           d="m 126.05407,191.50141 -3.66405,-3.68825 -21.43135,1e-5 -3.66384,3.6638 z"
           style="fill:none;stroke-width:0.171013;stroke-linejoin:round"
           id="path184"
           sodipodi:nodetypes="ccccc" />
        <path
           d="m 100.95864,176.82113 -3.663867,3.66384 2.5e-5,10.99205 3.663872,-3.66385 z"
           style="fill:#e66100;stroke-width:0.171013;stroke-linejoin:round"
           id="path191"
           sodipodi:nodetypes="ccccc" />
        <path
           d="m 93.630737,179.82556 v 11.65107 l 1.831917,1.83246 1.831916,-1.83192 v -10.99204 z"
           style="fill:none;stroke-width:0.171013;stroke-linejoin:round"
           id="path238" />
        <path
           style="fill:#e66100;stroke:#e66100;stroke-width:0.171013px;stroke-linecap:square;stroke-linejoin:miter;stroke-opacity:1"
           d="m 95.544696,193.19682 5.413974,-5.38365"
           id="path244"
           sodipodi:nodetypes="cc" />
        <path
           d="m 122.38973,165.78653 3.66384,-3.64567 5e-4,29.36055 -3.66405,-3.68825 z"
           style="fill:none;stroke-width:0.171013;stroke-linejoin:round"
           id="path173"
           sodipodi:nodetypes="ccccc" />
        <path
           d="m 127.88553,160.30868 -1.83191,1.83191 5.4e-4,29.36087 1.83191,1.83191 1.83192,-1.83191 -5.4e-4,-29.36033 z"
           style="fill:#e66100;stroke-width:0.171013;stroke-linejoin:round"
           id="path236" />
        <path
           style="fill:#e66100;stroke:#e66100;stroke-width:0.171013px;stroke-linecap:square;stroke-linejoin:miter;stroke-opacity:1"
           d="m 127.75173,193.24788 -5.36171,-5.43472"
           id="path243"
           sodipodi:nodetypes="cc" />
        <path
           d="m 97.294571,162.12278 v 0.0179 l -1.822741,1.82275 1.822741,1.82328 h 25.095209 l 3.66384,-3.64603 z"
           style="fill:#e66100;stroke-width:0.171013;stroke-linejoin:round"
           id="path230" />
        <path
           d="m 127.88553,160.30868 -1.83461,-1.83408 -25.09251,-0.0157 -3.663839,3.66384 28.759049,0.0179 z"
           style="fill:none;stroke-width:0.171013;stroke-linejoin:round"
           id="path235" />
        <path
           style="fill:none;stroke:#e66100;stroke-width:0.171013px;stroke-linecap:square;stroke-linejoin:bevel;stroke-opacity:1"
           d="m 95.545871,163.84319 5.446919,-5.32408"
           id="path241"
           sodipodi:nodetypes="cc" />
        <path
           style="fill:none;stroke:#e66100;stroke-width:0.171013px;stroke-linecap:square;stroke-linejoin:miter;stroke-opacity:1"
           d="m 122.40195,165.76821 5.36145,-5.39236"
           id="path242" />
        <path
           d="m 97.29456,162.14085 3.66382,-3.66382 -1e-5,-21.98407 -3.6638,-3.66384 z"
           style="fill:#e66100;stroke-width:0.171013;stroke-linejoin:round"
           id="path171" />
        <path
           d="m 95.932238,131.46704 -2.301501,2.30151 v 28.35369 l 1.831917,1.83246 1.831916,-1.83192 v -29.2934 z"
           style="fill:none;stroke-width:0.171013;stroke-linejoin:round"
           id="path229" />
        <path
           style="fill:#e66100;stroke:#e66100;stroke-width:0.171013px;stroke-linecap:square;stroke-linejoin:round;stroke-opacity:1"
           d="m 100.88236,136.41695 -5.20407,-4.69596 0.4601,-0.4601"
           id="path240"
           sodipodi:nodetypes="ccc" />
        <path
           d="m 97.294552,132.82915 3.663818,3.66381 21.43136,-1e-5 3.66384,-3.6638 z"
           style="fill:#e66100;stroke-width:0.171013;stroke-linejoin:round"
           id="path175"
           sodipodi:nodetypes="ccccc" />
        <path
           d="m 122.38979,147.48498 3.66382,-3.66382 v -10.99205 l -3.66388,3.66384 z"
           style="fill:none;stroke-width:0.171013;stroke-linejoin:round"
           id="path174"
           sodipodi:nodetypes="ccccc" />
        <path
           id="path225"
           style="fill:#e66100;stroke-width:0.171013;stroke-linejoin:round"
           d="m 127.88572,130.99672 -1.83207,1.8326 v 10.99186 l -3.66376,3.66396 7.32752,-3.00429 v -11.65153 z" />
        <path
           d="m 98.233739,129.16555 -2.301501,2.30149 1.362333,1.36234 h 28.759049 l 1.83191,-1.83246 -1.83191,-1.83192 z"
           style="fill:none;stroke-width:0.171013;stroke-linejoin:round"
           id="path227" />
        <path
           style="fill:#e66100;stroke:#e66100;stroke-width:0.171013px;stroke-linecap:square;stroke-linejoin:miter;stroke-opacity:1"
           d="m 122.39837,136.49295 5.36626,-5.41831"
           id="path246"
           sodipodi:nodetypes="cc" />
        <path
           style="color:#000000;fill:#e66100;stroke-width:0.646347;stroke-linecap:square;-inkscape-stroke:none"
           d="m 93.630738,179.82556 0.0043,0.28188 c 1.217278,0.15479 2.583605,0.41542 3.798301,0.58959 l -0.07804,-0.26673 c -1.360591,-0.19398 -2.504314,-0.441 -3.724553,-0.60474 z"
           id="path248"
           sodipodi:nodetypes="cccccc" />
        <path
           d="m 97.13835,163.5299 -1.753898,1.7539 0.0088,0.008 1.745113,-1.74512 z"
           style="fill:none;stroke-width:0.171013;stroke-linejoin:round"
           id="path231" />
        <path
           d="m 93.648123,167.0377 h -0.01757 v 0.0176 z"
           style="stroke-width:0.171013;stroke-linejoin:round"
           id="path233" />
        <path
           style="color:#000000;fill:#e66100;stroke-width:0.646347;stroke-linecap:square;-inkscape-stroke:none"
           d="m 122.26707,136.36007 v 0.13281 l 0.0979,10.88677 c 0,0 -0.006,0.0861 0.0248,0.10533 0.0441,0.0273 0.16432,-0.0674 0.16432,-0.0674 l -1.7e-4,-0.15755 -0.0232,-10.76716 v -0.13281 z"
           id="path329"
           sodipodi:nodetypes="cccsccccc" />
        <path
           style="color:#000000;fill:#e66100;stroke-width:0.646347;stroke-linecap:square;-inkscape-stroke:none"
           d="m 125.96139,129.07089 -27.782211,-0.0369 -4.681642,4.67969 v 28.46289 l 1.965117,1.77818 0.08756,0.0871 0.190284,-0.20199 -0.197859,-0.16864 -1.77948,-1.6041 v -28.24416 l 4.525391,-4.52539 27.56346,0.0389 1.79297,1.79296 0.0937,0.0937 0.18555,-0.1875 -0.0918,-0.0937 z"
           id="path330"
           sodipodi:nodetypes="ccccccccccccccccc" />
        <path
           style="color:#000000;fill:#e66100;stroke-width:0.646347;stroke-linecap:square;-inkscape-stroke:none"
           d="m 126.10496,158.34249 -25.11328,0.0449 h -0.13086 v 0.26367 h 0.13281 l 25.00195,-0.0449 1.64532,1.90984 0.0937,0.0918 0.24268,-0.20542 -0.0918,-0.0937 z"
           id="path331"
           sodipodi:nodetypes="ccccccccccc" />
        <path
           style="color:#000000;fill:#e66100;stroke-width:0.646347;stroke-linecap:square;-inkscape-stroke:none"
           d="m 122.2573,165.65499 v 0.13086 21.89453 h -21.29882 -0.13282 v 0.26562 h 0.13282 21.56445 v -22.16015 -0.13086 z"
           id="path332" />
        <path
           style="color:#000000;fill:#e66100;stroke-width:0.646347;stroke-linecap:square;-inkscape-stroke:none"
           d="m 100.92066,176.74267 c -0.0463,-0.0382 -0.13867,0.008 -0.13867,0.008 l -7.288358,2.98449 0.0039,11.79687 1.965122,1.77706 0.0834,0.0834 0.103822,-0.0831 -0.04079,-0.17653 -1.845932,-1.71013 -0.0039,-11.50977 7.199386,-2.97752 v 0 c 0,0 0.0183,-0.14614 -0.038,-0.19258 z"
           id="path333"
           sodipodi:nodetypes="scccccccccccss" />
      </g>
      <path
         style="fill:#c64600;stroke:none;stroke-width:0;stroke-linecap:square;stroke-linejoin:miter;stroke-dasharray:none"
         d="m 133.98405,236.93905 -26.79483,17.05235 -27.166599,-15.67056 -28.202629,-18.32995 54.297628,0.006 56.14439,0.10835 z"
         id="path15"
         sodipodi:nodetypes="ccccccc" />
      <path
         id="path470"
         style="fill:none;stroke-width:0.264582;stroke-linejoin:round"
         d="m 86.39514,219.31125 2.31355,2.46031 h 0.0589 v -2.4598 -5.1e-4 z m 2.37246,2.46031 h 67.13286 l -4.2137,-2.46031 -62.91864,5.1e-4 z" />
      <path
         style="fill:#c64600;stroke:none;stroke-width:0;stroke-linecap:square;stroke-linejoin:miter;stroke-dasharray:none"
         d="m 202.30923,25.221825 28.16519,14.678827 0.0122,31.362239 -1.77289,33.589159 L 201.57038,57.825792 173.59201,9.1491576 Z"
         id="path13"
         sodipodi:nodetypes="ccccccc" />
      <path
         style="fill:#c64600;stroke:none;stroke-width:0;stroke-linecap:square;stroke-linejoin:miter;stroke-dasharray:none"
         d="m 228.84391,152.12821 1.37035,31.73118 -27.1544,15.69169 -29.97552,15.25921 27.15401,-47.02012 28.16603,-48.56829 z"
         id="path14"
         sodipodi:nodetypes="ccccccc" />
      <g
         id="g3"
         transform="matrix(1.983054,0,0,1.7763791,-81.758413,-351.67014)"
         style="stroke-width:0.532801">
        <path
           id="path236-7"
           style="fill:#e66100;stroke-width:0.14097;stroke-linejoin:round"
           d="m 119.43396,225.21606 -0.47289,0.005 v 0.1531 l -0.0415,66.14978 2.32293,2.46402 0.16427,-0.79522 -2.02095,-2.02138 0.0481,-65.80126 z m 1.80856,68.77141 h 3.69844 l -3.3e-4,-68.766 -3.69844,-9e-4 z"
           sodipodi:nodetypes="cccccccccccccc" />
      </g>
      <g
         id="g2"
         transform="matrix(0.90851125,0,0,2.4423835,50.871124,-493.44127)"
         style="stroke-width:0.671318">
        <g
           id="g1"
           style="stroke-width:0.671318">
          <path
             d="m 148.5936,225.44614 v -3.67458 h -53.046825 -0.04654 l -7.9e-4,3.69848 z"
             style="fill:#e66100;stroke-width:0.17762;stroke-linejoin:round"
             id="path468"
             sodipodi:nodetypes="cccccc" />
          <path
             style="color:#000000;fill:#e66100;stroke-width:0.671308;stroke-linecap:square;-inkscape-stroke:none"
             d="m 93.557886,219.31125 0.02252,3.80194 1.918872,2.35671 v 0 0 -0.8352 l -1.611248,-1.91119 -0.02773,-3.41226 z"
             id="path458"
             sodipodi:nodetypes="ccccccccc" />
          <path
             style="color:#000000;fill:#e66100;stroke-width:0.671308;stroke-linecap:square;-inkscape-stroke:none"
             d="m 93.5625,219.73733 2.173664,2.62129 0.117602,-0.0413 0.05231,-0.54581 -2.166584,-2.48997 z"
             id="path458-3"
             sodipodi:nodetypes="cccccc" />
        </g>
        <path
           style="fill:none;stroke:#e66100;stroke-width:0.17762;stroke-linecap:square;stroke-linejoin:miter;stroke-dasharray:none;stroke-opacity:1"
           d="m 93.662418,219.29678 51.601572,0.0145 3.18173,2.50708"
           id="path471"
           sodipodi:nodetypes="ccc" />
      </g>
      <path
         style="fill:#c64600;stroke:none;stroke-width:0;stroke-linecap:square;stroke-linejoin:miter;stroke-dasharray:none"
         d="M 80.097957,-14.402976 106.89279,-31.45533 134.05938,-15.784767 162.262,2.5451805 107.96439,2.5388805 51.820003,2.4305376 Z"
         id="path12"
         sodipodi:nodetypes="ccccccc" />
      <path
         sodipodi:type="star"
         style="fill:none;stroke:#ff7800;stroke-width:32.9461;stroke-linecap:square;stroke-linejoin:miter;stroke-dasharray:none"
         id="path3"
         inkscape:flatsided="true"
         sodipodi:sides="6"
         sodipodi:cx="304.03516"
         sodipodi:cy="83.438599"
         sodipodi:r1="503.98831"
         sodipodi:r2="436.46667"
         sodipodi:arg1="1.0471976"
         sodipodi:arg2="1.5707963"
         inkscape:rounded="0"
         inkscape:randomized="0"
         d="M 556.02929,519.90529 52.040979,519.90527 -199.95316,83.438574 52.041022,-353.02809 l 503.988308,2e-5 251.99414,436.466693 z"
         transform="matrix(0.24103136,0,0,0.24081531,33.758996,90.925512)"
         inkscape:transform-center-x="1.3005687e-05" />
      <path
         style="fill:#c64600;stroke:none;stroke-width:0;stroke-linecap:square;stroke-linejoin:miter;stroke-dasharray:none"
         d="M 62.596717,696.25064 -43.854383,640.7716 -43.900472,522.23715 -37.199796,395.28587 65.389247,573.02302 171.1342,756.99771 Z"
         id="path10"
         transform="matrix(0.26458333,0,0,0.26458333,-4.7892719,12.599465)"
         sodipodi:nodetypes="ccccccc" />
      <path
         id="path4"
         style="fill:none;stroke:#ff7800;stroke-width:18.7224;stroke-linecap:square"
         inkscape:transform-center-x="1.2891234e-05"
         inkscape:transform-center-y="-3.6364317e-06"
         transform="matrix(0.24502306,0.14130073,-0.14133732,0.24452064,44.338367,47.655951)"
         d="M 556.02929,519.90529 52.040979,519.90527 -199.95316,83.438574 52.041022,-353.02809 l 503.988308,2e-5 251.99414,436.466693 z" />
    </g>
  </g>
</svg>
