<?xml version="1.0" standalone="no"?>
<!DOCTYPE svg PUBLIC "-//W3C//DTD SVG 20010904//EN"
 "http://www.w3.org/TR/2001/REC-SVG-20010904/DTD/svg10.dtd">
<svg version="1.0" xmlns="http://www.w3.org/2000/svg"
 width="825.000000pt" height="825.000000pt" viewBox="0 0 825.000000 825.000000"
 preserveAspectRatio="xMidYMid meet">
<metadata>
Created by potrace 1.14, written by Peter Selinger 2001-2017
</metadata>
<g transform="translate(0.000000,825.000000) scale(0.100000,-0.100000)"
fill="#000000" stroke="none">
<path d="M0 5728 l0 -2523 319 630 319 630 552 3 c345 1 550 -1 548 -7 -1 -6
-131 -291 -288 -635 l-285 -625 -582 -1 -583 0 0 -1600 0 -1600 4125 0 4125 0
-1 1373 c-1 855 -5 1351 -10 1317 -67 -401 -437 -708 -1076 -894 -458 -133
-1018 -200 -1778 -213 -502 -8 -877 9 -1515 70 l-235 23 -3 262 c-1 144 -1
262 1 262 2 0 104 -16 228 -34 589 -91 821 -110 1339 -110 301 0 437 4 570 17
312 31 537 73 734 138 430 141 639 368 599 653 -49 347 -385 523 -1228 645
-77 11 -365 45 -640 76 -566 63 -777 92 -1050 140 -164 29 -423 86 -520 113
l-30 8 -3 312 -2 312 155 0 154 0 63 -34 c155 -85 489 -167 934 -230 98 -14
383 -48 633 -76 521 -58 741 -87 1002 -135 902 -165 1407 -418 1596 -800 38
-75 52 -118 68 -209 11 -59 13 380 14 2597 l1 2667 -2170 0 c-1193 0 -2170 -1
-2170 -3 0 -1 230 -458 510 -1015 281 -556 510 -1014 510 -1016 0 -2 -37 -7
-82 -11 -304 -24 -614 -65 -807 -106 -51 -12 -97 -17 -100 -12 -4 4 -167 356
-361 781 -195 425 -357 769 -361 765 -4 -5 -244 -528 -532 -1163 l-526 -1155
-545 -3 c-300 -1 -546 1 -546 5 0 3 330 661 733 1461 402 800 734 1459 735
1463 2 5 -554 9 -1267 9 l-1271 0 0 -2522z m6005 281 c329 -16 721 -54 1090
-105 191 -26 598 -91 628 -100 16 -5 17 -28 17 -298 l0 -293 -112 34 c-496
151 -1099 258 -1651 294 -238 15 -855 6 -1037 -15 -327 -39 -637 -114 -792
-192 l-47 -24 -623 0 -623 1 87 83 c151 146 308 239 568 339 609 233 1463 328
2495 276z m-630 -669 l16 -30 -323 1 c-300 1 -318 2 -246 14 43 7 133 18 200
24 68 6 139 13 158 15 19 1 68 4 107 4 71 2 73 1 88 -28z m1105 -450 l0 -360
-1455 0 -1455 0 0 -2235 0 -2235 -435 0 -435 0 0 2237 0 2236 -1300 -7 c-715
-4 -1300 -5 -1300 -2 0 4 81 168 180 366 l180 360 3010 0 3010 0 0 -360z
m-629 -501 c22 -45 39 -83 36 -85 -5 -5 -772 82 -927 106 -216 33 -260 41
-260 51 0 5 234 9 555 9 l555 0 41 -81z m-46 -1054 c230 -33 616 -112 634
-131 2 -2 -255 -4 -573 -4 l-577 0 -45 94 c-24 51 -44 98 -44 103 0 9 369 -29
605 -62z m-3402 -914 c62 -16 140 -35 175 -41 l62 -13 0 -294 0 -294 -32 5
c-18 3 -91 15 -163 26 -71 11 -138 23 -147 26 -17 5 -18 29 -18 310 0 167 2
304 6 304 3 0 55 -13 117 -29z"/>
</g>
</svg>
